<?xml version="1.0" encoding="UTF-8" standalone="no"?>
<!DOCTYPE svg PUBLIC "-//W3C//DTD SVG 1.1//EN"
 "http://www.w3.org/Graphics/SVG/1.1/DTD/svg11.dtd">
<!-- Generated by graphviz version 2.43.0 (0)
 -->
<!-- Title: %3 Pages: 1 -->
<svg width="883pt" height="332pt"
 viewBox="0.00 0.00 883.47 332.00" xmlns="http://www.w3.org/2000/svg" xmlns:xlink="http://www.w3.org/1999/xlink">
<g id="graph0" class="graph" transform="scale(1 1) rotate(0) translate(4 328)">
<title>%3</title>
<polygon fill="white" stroke="transparent" points="-4,4 -4,-328 879.47,-328 879.47,4 -4,4"/>
<!-- random_netdevice -->
<g id="node1" class="node">
<title>random_netdevice</title>
<polygon fill="none" stroke="black" points="418.74,-252 260.78,-252 204.53,-216 474.99,-216 418.74,-252"/>
<text text-anchor="middle" x="339.76" y="-230.3" font-family="Times,serif" font-size="14.00">random_netdevice</text>
</g>
<!-- transform_random_netdevice -->
<g id="node5" class="node">
<title>transform_random_netdevice</title>
<polygon fill="none" stroke="black" points="339.76,-180 133.14,-162 339.76,-144 546.38,-162 339.76,-180"/>
<text text-anchor="middle" x="339.76" y="-158.3" font-family="Times,serif" font-size="14.00">transform_random_netdevice</text>
</g>
<!-- random_netdevice&#45;&gt;transform_random_netdevice -->
<g id="edge4" class="edge">
<title>random_netdevice&#45;&gt;transform_random_netdevice</title>
<path fill="none" stroke="black" d="M339.76,-215.7C339.76,-207.98 339.76,-198.71 339.76,-190.11"/>
<polygon fill="black" stroke="black" points="343.26,-190.1 339.76,-180.1 336.26,-190.1 343.26,-190.1"/>
</g>
<!-- suricata -->
<g id="node2" class="node">
<title>suricata</title>
<polygon fill="none" stroke="black" points="775.49,-324 696.03,-324 667.72,-288 803.79,-288 775.49,-324"/>
<text text-anchor="middle" x="735.76" y="-302.3" font-family="Times,serif" font-size="14.00">suricata</text>
</g>
<!-- filter_suricata -->
<g id="node3" class="node">
<title>filter_suricata</title>
<polygon fill="none" stroke="black" points="735.76,-252 629.01,-234 735.76,-216 842.5,-234 735.76,-252"/>
<text text-anchor="middle" x="735.76" y="-230.3" font-family="Times,serif" font-size="14.00">filter_suricata</text>
</g>
<!-- suricata&#45;&gt;filter_suricata -->
<g id="edge1" class="edge">
<title>suricata&#45;&gt;filter_suricata</title>
<path fill="none" stroke="black" d="M735.76,-287.7C735.76,-279.98 735.76,-270.71 735.76,-262.11"/>
<polygon fill="black" stroke="black" points="739.26,-262.1 735.76,-252.1 732.26,-262.1 739.26,-262.1"/>
</g>
<!-- transform_suricata -->
<g id="node7" class="node">
<title>transform_suricata</title>
<polygon fill="none" stroke="black" points="735.76,-180 595.84,-162 735.76,-144 875.68,-162 735.76,-180"/>
<text text-anchor="middle" x="735.76" y="-158.3" font-family="Times,serif" font-size="14.00">transform_suricata</text>
</g>
<!-- filter_suricata&#45;&gt;transform_suricata -->
<g id="edge5" class="edge">
<title>filter_suricata&#45;&gt;transform_suricata</title>
<path fill="none" stroke="black" d="M735.76,-215.7C735.76,-207.98 735.76,-198.71 735.76,-190.11"/>
<polygon fill="black" stroke="black" points="739.26,-190.1 735.76,-180.1 732.26,-190.1 739.26,-190.1"/>
</g>
<!-- norm_event_random_netdevice -->
<g id="node4" class="node">
<title>norm_event_random_netdevice</title>
<polygon fill="none" stroke="black" points="218.76,-108 0.24,-90 218.76,-72 437.28,-90 218.76,-108"/>
<text text-anchor="middle" x="218.76" y="-86.3" font-family="Times,serif" font-size="14.00">norm_event_random_netdevice</text>
</g>
<!-- dsiem_frontend -->
<g id="node8" class="node">
<title>dsiem_frontend</title>
<polygon fill="none" stroke="black" points="244.96,0 382.56,0 431.56,-36 195.95,-36 244.96,0"/>
<text text-anchor="middle" x="313.76" y="-14.3" font-family="Times,serif" font-size="14.00">dsiem_frontend</text>
</g>
<!-- norm_event_random_netdevice&#45;&gt;dsiem_frontend -->
<g id="edge6" class="edge">
<title>norm_event_random_netdevice&#45;&gt;dsiem_frontend</title>
<path fill="none" stroke="black" d="M239.84,-73.46C252.25,-64.33 268.17,-52.59 282.07,-42.35"/>
<polygon fill="black" stroke="black" points="284.43,-44.96 290.4,-36.21 280.28,-39.33 284.43,-44.96"/>
</g>
<!-- elasticsearch -->
<g id="node9" class="node">
<title>elasticsearch</title>
<polygon fill="none" stroke="black" points="496.65,0 614.87,0 656.97,-36 454.54,-36 496.65,0"/>
<text text-anchor="middle" x="555.76" y="-14.3" font-family="Times,serif" font-size="14.00">elasticsearch</text>
</g>
<!-- norm_event_random_netdevice&#45;&gt;elasticsearch -->
<g id="edge10" class="edge">
<title>norm_event_random_netdevice&#45;&gt;elasticsearch</title>
<path fill="none" stroke="black" d="M277.46,-76.81C328.8,-66.14 404.23,-50.47 463.61,-38.14"/>
<polygon fill="black" stroke="black" points="464.67,-41.5 473.75,-36.03 463.25,-34.64 464.67,-41.5"/>
</g>
<!-- transform_random_netdevice&#45;&gt;norm_event_random_netdevice -->
<g id="edge2" class="edge">
<title>transform_random_netdevice&#45;&gt;norm_event_random_netdevice</title>
<path fill="none" stroke="black" d="M314.1,-146.15C296.49,-135.97 272.91,-122.33 253.61,-111.16"/>
<polygon fill="black" stroke="black" points="255.21,-108.04 244.8,-106.07 251.7,-114.1 255.21,-108.04"/>
</g>
<!-- transform_random_netdevice&#45;&gt;elasticsearch -->
<g id="edge9" class="edge">
<title>transform_random_netdevice&#45;&gt;elasticsearch</title>
<path fill="none" stroke="black" d="M374.47,-146.98C396.15,-137.46 424.15,-123.78 446.76,-108 465.84,-94.69 466.96,-86.98 484.76,-72 496.9,-61.78 510.79,-51.18 523.05,-42.18"/>
<polygon fill="black" stroke="black" points="525.2,-44.94 531.23,-36.23 521.08,-39.28 525.2,-44.94"/>
</g>
<!-- norm_event_suricata -->
<g id="node6" class="node">
<title>norm_event_suricata</title>
<polygon fill="none" stroke="black" points="645.76,-108 493.94,-90 645.76,-72 797.58,-90 645.76,-108"/>
<text text-anchor="middle" x="645.76" y="-86.3" font-family="Times,serif" font-size="14.00">norm_event_suricata</text>
</g>
<!-- norm_event_suricata&#45;&gt;dsiem_frontend -->
<g id="edge7" class="edge">
<title>norm_event_suricata&#45;&gt;dsiem_frontend</title>
<path fill="none" stroke="black" d="M593.88,-78.06C543.35,-67.41 465.48,-50.99 404.65,-38.16"/>
<polygon fill="black" stroke="black" points="405.16,-34.7 394.66,-36.06 403.72,-41.54 405.16,-34.7"/>
</g>
<!-- norm_event_suricata&#45;&gt;elasticsearch -->
<g id="edge11" class="edge">
<title>norm_event_suricata&#45;&gt;elasticsearch</title>
<path fill="none" stroke="black" d="M626.67,-74.15C614.79,-64.92 599.26,-52.83 585.76,-42.33"/>
<polygon fill="black" stroke="black" points="587.71,-39.42 577.67,-36.04 583.41,-44.94 587.71,-39.42"/>
</g>
<!-- transform_suricata&#45;&gt;norm_event_suricata -->
<g id="edge3" class="edge">
<title>transform_suricata&#45;&gt;norm_event_suricata</title>
<path fill="none" stroke="black" d="M716.67,-146.15C703.91,-136.22 686.92,-123.01 672.77,-112.01"/>
<polygon fill="black" stroke="black" points="674.86,-109.2 664.82,-105.82 670.56,-114.73 674.86,-109.2"/>
</g>
<!-- transform_suricata&#45;&gt;elasticsearch -->
<g id="edge8" class="edge">
<title>transform_suricata&#45;&gt;elasticsearch</title>
<path fill="none" stroke="black" d="M764.64,-147.7C780.18,-138.85 797.93,-125.6 806.76,-108 813.93,-93.7 816.84,-84.43 806.76,-72 787.56,-48.32 717.13,-34.81 655.75,-27.37"/>
<polygon fill="black" stroke="black" points="655.93,-23.87 645.59,-26.18 655.12,-30.82 655.93,-23.87"/>
</g>
</g>
</svg>
