<?xml version="1.0" encoding="UTF-8" standalone="no"?>
<!DOCTYPE svg PUBLIC "-//W3C//DTD SVG 1.1//EN"
 "http://www.w3.org/Graphics/SVG/1.1/DTD/svg11.dtd">
<!-- Generated by graphviz version 2.43.0 (0)
 -->
<!-- Title: %3 Pages: 1 -->
<svg width="820pt" height="188pt"
 viewBox="0.00 0.00 820.08 188.00" xmlns="http://www.w3.org/2000/svg" xmlns:xlink="http://www.w3.org/1999/xlink">
<g id="graph0" class="graph" transform="scale(1 1) rotate(0) translate(4 184)">
<title>%3</title>
<polygon fill="white" stroke="transparent" points="-4,4 -4,-184 816.08,-184 816.08,4 -4,4"/>
<!-- dsiem_alarm_events -->
<g id="node1" class="node">
<title>dsiem_alarm_events</title>
<polygon fill="none" stroke="black" points="306.09,-180 133.26,-180 71.71,-144 367.65,-144 306.09,-180"/>
<text text-anchor="middle" x="219.68" y="-158.3" font-family="Times,serif" font-size="14.00">dsiem_alarm_events</text>
</g>
<!-- transform_dsiem_alarm_events -->
<g id="node3" class="node">
<title>transform_dsiem_alarm_events</title>
<polygon fill="none" stroke="black" points="219.68,-108 -0.18,-90 219.68,-72 439.54,-90 219.68,-108"/>
<text text-anchor="middle" x="219.68" y="-86.3" font-family="Times,serif" font-size="14.00">transform_dsiem_alarm_events</text>
</g>
<!-- dsiem_alarm_events&#45;&gt;transform_dsiem_alarm_events -->
<g id="edge1" class="edge">
<title>dsiem_alarm_events&#45;&gt;transform_dsiem_alarm_events</title>
<path fill="none" stroke="black" d="M219.68,-143.7C219.68,-135.98 219.68,-126.71 219.68,-118.11"/>
<polygon fill="black" stroke="black" points="223.18,-118.1 219.68,-108.1 216.18,-118.1 223.18,-118.1"/>
</g>
<!-- dsiem_alarms -->
<g id="node2" class="node">
<title>dsiem_alarms</title>
<polygon fill="none" stroke="black" points="696.53,-180 572.83,-180 528.77,-144 740.59,-144 696.53,-180"/>
<text text-anchor="middle" x="634.68" y="-158.3" font-family="Times,serif" font-size="14.00">dsiem_alarms</text>
</g>
<!-- transform_dsiem_alarms -->
<g id="node4" class="node">
<title>transform_dsiem_alarms</title>
<polygon fill="none" stroke="black" points="634.68,-108 457.38,-90 634.68,-72 811.97,-90 634.68,-108"/>
<text text-anchor="middle" x="634.68" y="-86.3" font-family="Times,serif" font-size="14.00">transform_dsiem_alarms</text>
</g>
<!-- dsiem_alarms&#45;&gt;transform_dsiem_alarms -->
<g id="edge2" class="edge">
<title>dsiem_alarms&#45;&gt;transform_dsiem_alarms</title>
<path fill="none" stroke="black" d="M634.68,-143.7C634.68,-135.98 634.68,-126.71 634.68,-118.11"/>
<polygon fill="black" stroke="black" points="638.18,-118.1 634.68,-108.1 631.18,-118.1 638.18,-118.1"/>
</g>
<!-- surrealdb -->
<g id="node6" class="node">
<title>surrealdb</title>
<polygon fill="none" stroke="black" points="173.49,0 265.87,0 298.77,-36 140.58,-36 173.49,0"/>
<text text-anchor="middle" x="219.68" y="-14.3" font-family="Times,serif" font-size="14.00">surrealdb</text>
</g>
<!-- transform_dsiem_alarm_events&#45;&gt;surrealdb -->
<g id="edge4" class="edge">
<title>transform_dsiem_alarm_events&#45;&gt;surrealdb</title>
<path fill="none" stroke="black" d="M219.68,-71.7C219.68,-63.98 219.68,-54.71 219.68,-46.11"/>
<polygon fill="black" stroke="black" points="223.18,-46.1 219.68,-36.1 216.18,-46.1 223.18,-46.1"/>
</g>
<!-- dsiem_es_proxy -->
<g id="node5" class="node">
<title>dsiem_es_proxy</title>
<polygon fill="none" stroke="black" points="565.39,0 703.97,0 753.32,-36 516.04,-36 565.39,0"/>
<text text-anchor="middle" x="634.68" y="-14.3" font-family="Times,serif" font-size="14.00">dsiem_es_proxy</text>
</g>
<!-- transform_dsiem_alarms&#45;&gt;dsiem_es_proxy -->
<g id="edge3" class="edge">
<title>transform_dsiem_alarms&#45;&gt;dsiem_es_proxy</title>
<path fill="none" stroke="black" d="M634.68,-71.7C634.68,-63.98 634.68,-54.71 634.68,-46.11"/>
<polygon fill="black" stroke="black" points="638.18,-46.1 634.68,-36.1 631.18,-46.1 638.18,-46.1"/>
</g>
</g>
</svg>
