<?xml version="1.0" encoding="UTF-8" standalone="no"?>
<!DOCTYPE svg PUBLIC "-//W3C//DTD SVG 1.1//EN"
 "http://www.w3.org/Graphics/SVG/1.1/DTD/svg11.dtd">
<!-- Generated by graphviz version 2.43.0 (0)
 -->
<!-- Title: %3 Pages: 1 -->
<svg width="766pt" height="332pt"
 viewBox="0.00 0.00 766.42 332.00" xmlns="http://www.w3.org/2000/svg" xmlns:xlink="http://www.w3.org/1999/xlink">
<g id="graph0" class="graph" transform="scale(1 1) rotate(0) translate(4 328)">
<title>%3</title>
<polygon fill="white" stroke="transparent" points="-4,4 -4,-328 762.42,-328 762.42,4 -4,4"/>
<!-- random_netdevice -->
<g id="node1" class="node">
<title>random_netdevice</title>
<polygon fill="none" stroke="black" points="297.74,-252 139.78,-252 83.53,-216 353.99,-216 297.74,-252"/>
<text text-anchor="middle" x="218.76" y="-230.3" font-family="Times,serif" font-size="14.00">random_netdevice</text>
</g>
<!-- transform_random_netdevice -->
<g id="node5" class="node">
<title>transform_random_netdevice</title>
<polygon fill="none" stroke="black" points="218.76,-180 12.14,-162 218.76,-144 425.38,-162 218.76,-180"/>
<text text-anchor="middle" x="218.76" y="-158.3" font-family="Times,serif" font-size="14.00">transform_random_netdevice</text>
</g>
<!-- random_netdevice&#45;&gt;transform_random_netdevice -->
<g id="edge4" class="edge">
<title>random_netdevice&#45;&gt;transform_random_netdevice</title>
<path fill="none" stroke="black" d="M218.76,-215.7C218.76,-207.98 218.76,-198.71 218.76,-190.11"/>
<polygon fill="black" stroke="black" points="222.26,-190.1 218.76,-180.1 215.26,-190.1 222.26,-190.1"/>
</g>
<!-- suricata -->
<g id="node2" class="node">
<title>suricata</title>
<polygon fill="none" stroke="black" points="646.49,-324 567.03,-324 538.72,-288 674.79,-288 646.49,-324"/>
<text text-anchor="middle" x="606.76" y="-302.3" font-family="Times,serif" font-size="14.00">suricata</text>
</g>
<!-- filter_suricata -->
<g id="node3" class="node">
<title>filter_suricata</title>
<polygon fill="none" stroke="black" points="606.76,-252 500.01,-234 606.76,-216 713.5,-234 606.76,-252"/>
<text text-anchor="middle" x="606.76" y="-230.3" font-family="Times,serif" font-size="14.00">filter_suricata</text>
</g>
<!-- suricata&#45;&gt;filter_suricata -->
<g id="edge1" class="edge">
<title>suricata&#45;&gt;filter_suricata</title>
<path fill="none" stroke="black" d="M606.76,-287.7C606.76,-279.98 606.76,-270.71 606.76,-262.11"/>
<polygon fill="black" stroke="black" points="610.26,-262.1 606.76,-252.1 603.26,-262.1 610.26,-262.1"/>
</g>
<!-- transform_suricata -->
<g id="node7" class="node">
<title>transform_suricata</title>
<polygon fill="none" stroke="black" points="606.76,-180 466.84,-162 606.76,-144 746.68,-162 606.76,-180"/>
<text text-anchor="middle" x="606.76" y="-158.3" font-family="Times,serif" font-size="14.00">transform_suricata</text>
</g>
<!-- filter_suricata&#45;&gt;transform_suricata -->
<g id="edge5" class="edge">
<title>filter_suricata&#45;&gt;transform_suricata</title>
<path fill="none" stroke="black" d="M606.76,-215.7C606.76,-207.98 606.76,-198.71 606.76,-190.11"/>
<polygon fill="black" stroke="black" points="610.26,-190.1 606.76,-180.1 603.26,-190.1 610.26,-190.1"/>
</g>
<!-- norm_event_random_netdevice -->
<g id="node4" class="node">
<title>norm_event_random_netdevice</title>
<polygon fill="none" stroke="black" points="218.76,-108 0.24,-90 218.76,-72 437.28,-90 218.76,-108"/>
<text text-anchor="middle" x="218.76" y="-86.3" font-family="Times,serif" font-size="14.00">norm_event_random_netdevice</text>
</g>
<!-- dsiem_frontend -->
<g id="node8" class="node">
<title>dsiem_frontend</title>
<polygon fill="none" stroke="black" points="235.96,0 373.56,0 422.56,-36 186.95,-36 235.96,0"/>
<text text-anchor="middle" x="304.76" y="-14.3" font-family="Times,serif" font-size="14.00">dsiem_frontend</text>
</g>
<!-- norm_event_random_netdevice&#45;&gt;dsiem_frontend -->
<g id="edge6" class="edge">
<title>norm_event_random_netdevice&#45;&gt;dsiem_frontend</title>
<path fill="none" stroke="black" d="M237.85,-73.46C248.97,-64.41 263.22,-52.81 275.71,-42.64"/>
<polygon fill="black" stroke="black" points="278.07,-45.24 283.61,-36.21 273.65,-39.81 278.07,-45.24"/>
</g>
<!-- surrealdb -->
<g id="node9" class="node">
<title>surrealdb</title>
<polygon fill="none" stroke="black" points="516.57,0 608.95,0 641.85,-36 483.66,-36 516.57,0"/>
<text text-anchor="middle" x="562.76" y="-14.3" font-family="Times,serif" font-size="14.00">surrealdb</text>
</g>
<!-- norm_event_random_netdevice&#45;&gt;surrealdb -->
<g id="edge8" class="edge">
<title>norm_event_random_netdevice&#45;&gt;surrealdb</title>
<path fill="none" stroke="black" d="M278.29,-76.89C332.39,-65.88 412.93,-49.49 474.51,-36.96"/>
<polygon fill="black" stroke="black" points="475.51,-40.33 484.61,-34.9 474.12,-33.47 475.51,-40.33"/>
</g>
<!-- transform_random_netdevice&#45;&gt;norm_event_random_netdevice -->
<g id="edge2" class="edge">
<title>transform_random_netdevice&#45;&gt;norm_event_random_netdevice</title>
<path fill="none" stroke="black" d="M218.76,-143.7C218.76,-135.98 218.76,-126.71 218.76,-118.11"/>
<polygon fill="black" stroke="black" points="222.26,-118.1 218.76,-108.1 215.26,-118.1 222.26,-118.1"/>
</g>
<!-- norm_event_suricata -->
<g id="node6" class="node">
<title>norm_event_suricata</title>
<polygon fill="none" stroke="black" points="606.76,-108 454.94,-90 606.76,-72 758.58,-90 606.76,-108"/>
<text text-anchor="middle" x="606.76" y="-86.3" font-family="Times,serif" font-size="14.00">norm_event_suricata</text>
</g>
<!-- norm_event_suricata&#45;&gt;dsiem_frontend -->
<g id="edge7" class="edge">
<title>norm_event_suricata&#45;&gt;dsiem_frontend</title>
<path fill="none" stroke="black" d="M557.9,-77.68C512.17,-67.08 442.9,-51.02 388.38,-38.38"/>
<polygon fill="black" stroke="black" points="388.91,-34.91 378.38,-36.06 387.33,-41.73 388.91,-34.91"/>
</g>
<!-- norm_event_suricata&#45;&gt;surrealdb -->
<g id="edge9" class="edge">
<title>norm_event_suricata&#45;&gt;surrealdb</title>
<path fill="none" stroke="black" d="M596.78,-73.12C591.55,-64.8 585.02,-54.41 579.08,-44.96"/>
<polygon fill="black" stroke="black" points="581.91,-42.9 573.63,-36.29 575.99,-46.62 581.91,-42.9"/>
</g>
<!-- transform_suricata&#45;&gt;norm_event_suricata -->
<g id="edge3" class="edge">
<title>transform_suricata&#45;&gt;norm_event_suricata</title>
<path fill="none" stroke="black" d="M606.76,-143.7C606.76,-135.98 606.76,-126.71 606.76,-118.11"/>
<polygon fill="black" stroke="black" points="610.26,-118.1 606.76,-108.1 603.26,-118.1 610.26,-118.1"/>
</g>
</g>
</svg>
