<?xml version="1.0" encoding="UTF-8" standalone="no"?>
<!DOCTYPE svg PUBLIC "-//W3C//DTD SVG 1.1//EN"
 "http://www.w3.org/Graphics/SVG/1.1/DTD/svg11.dtd">
<!-- Generated by graphviz version 2.43.0 (0)
 -->
<!-- Title: %3 Pages: 1 -->
<svg width="464pt" height="332pt"
 viewBox="0.00 0.00 463.76 332.00" xmlns="http://www.w3.org/2000/svg" xmlns:xlink="http://www.w3.org/1999/xlink">
<g id="graph0" class="graph" transform="scale(1 1) rotate(0) translate(4 328)">
<title>%3</title>
<polygon fill="white" stroke="transparent" points="-4,4 -4,-328 459.76,-328 459.76,4 -4,4"/>
<!-- suricata -->
<g id="node1" class="node">
<title>suricata</title>
<polygon fill="none" stroke="black" points="304.39,-324 224.92,-324 196.62,-288 332.69,-288 304.39,-324"/>
<text text-anchor="middle" x="264.65" y="-302.3" font-family="Times,serif" font-size="14.00">suricata</text>
</g>
<!-- filter_suricata -->
<g id="node2" class="node">
<title>filter_suricata</title>
<polygon fill="none" stroke="black" points="264.65,-252 157.91,-234 264.65,-216 371.4,-234 264.65,-252"/>
<text text-anchor="middle" x="264.65" y="-230.3" font-family="Times,serif" font-size="14.00">filter_suricata</text>
</g>
<!-- suricata&#45;&gt;filter_suricata -->
<g id="edge1" class="edge">
<title>suricata&#45;&gt;filter_suricata</title>
<path fill="none" stroke="black" d="M264.65,-287.7C264.65,-279.98 264.65,-270.71 264.65,-262.11"/>
<polygon fill="black" stroke="black" points="268.15,-262.1 264.65,-252.1 261.15,-262.1 268.15,-262.1"/>
</g>
<!-- transform_suricata -->
<g id="node4" class="node">
<title>transform_suricata</title>
<polygon fill="none" stroke="black" points="264.65,-180 124.73,-162 264.65,-144 404.58,-162 264.65,-180"/>
<text text-anchor="middle" x="264.65" y="-158.3" font-family="Times,serif" font-size="14.00">transform_suricata</text>
</g>
<!-- filter_suricata&#45;&gt;transform_suricata -->
<g id="edge3" class="edge">
<title>filter_suricata&#45;&gt;transform_suricata</title>
<path fill="none" stroke="black" d="M264.65,-215.7C264.65,-207.98 264.65,-198.71 264.65,-190.11"/>
<polygon fill="black" stroke="black" points="268.15,-190.1 264.65,-180.1 261.15,-190.1 268.15,-190.1"/>
</g>
<!-- norm_event_suricata -->
<g id="node3" class="node">
<title>norm_event_suricata</title>
<polygon fill="none" stroke="black" points="174.65,-108 22.83,-90 174.65,-72 326.47,-90 174.65,-108"/>
<text text-anchor="middle" x="174.65" y="-86.3" font-family="Times,serif" font-size="14.00">norm_event_suricata</text>
</g>
<!-- dsiem_frontend -->
<g id="node5" class="node">
<title>dsiem_frontend</title>
<polygon fill="none" stroke="black" points="48.85,0 186.45,0 235.46,-36 -0.15,-36 48.85,0"/>
<text text-anchor="middle" x="117.65" y="-14.3" font-family="Times,serif" font-size="14.00">dsiem_frontend</text>
</g>
<!-- norm_event_suricata&#45;&gt;dsiem_frontend -->
<g id="edge4" class="edge">
<title>norm_event_suricata&#45;&gt;dsiem_frontend</title>
<path fill="none" stroke="black" d="M162,-73.46C155.03,-64.91 146.21,-54.07 138.27,-44.32"/>
<polygon fill="black" stroke="black" points="140.9,-42.01 131.87,-36.46 135.47,-46.43 140.9,-42.01"/>
</g>
<!-- elasticsearch -->
<g id="node6" class="node">
<title>elasticsearch</title>
<polygon fill="none" stroke="black" points="295.54,0 413.76,0 455.87,-36 253.44,-36 295.54,0"/>
<text text-anchor="middle" x="354.65" y="-14.3" font-family="Times,serif" font-size="14.00">elasticsearch</text>
</g>
<!-- norm_event_suricata&#45;&gt;elasticsearch -->
<g id="edge6" class="edge">
<title>norm_event_suricata&#45;&gt;elasticsearch</title>
<path fill="none" stroke="black" d="M208.51,-75.83C234.61,-65.68 271.19,-51.46 301.23,-39.78"/>
<polygon fill="black" stroke="black" points="302.68,-42.97 310.73,-36.08 300.14,-36.44 302.68,-42.97"/>
</g>
<!-- transform_suricata&#45;&gt;norm_event_suricata -->
<g id="edge2" class="edge">
<title>transform_suricata&#45;&gt;norm_event_suricata</title>
<path fill="none" stroke="black" d="M245.57,-146.15C232.8,-136.22 215.81,-123.01 201.66,-112.01"/>
<polygon fill="black" stroke="black" points="203.75,-109.2 193.71,-105.82 199.46,-114.73 203.75,-109.2"/>
</g>
<!-- transform_suricata&#45;&gt;elasticsearch -->
<g id="edge5" class="edge">
<title>transform_suricata&#45;&gt;elasticsearch</title>
<path fill="none" stroke="black" d="M291.48,-147.36C306.72,-138.24 324.86,-124.84 335.65,-108 347.48,-89.54 352.07,-64.94 353.79,-46.29"/>
<polygon fill="black" stroke="black" points="357.3,-46.3 354.51,-36.08 350.32,-45.81 357.3,-46.3"/>
</g>
</g>
</svg>
